<?xml version="1.0" standalone="no"?>
<!DOCTYPE svg PUBLIC "-//W3C//DTD SVG 20010904//EN"
 "http://www.w3.org/TR/2001/REC-SVG-20010904/DTD/svg10.dtd">
<svg version="1.0" xmlns="http://www.w3.org/2000/svg"
 width="700.000000pt" height="700.000000pt" viewBox="0 0 700.000000 700.000000"
 preserveAspectRatio="xMidYMid meet">
<metadata>
Created by potrace 1.11, written by Peter Selinger 2001-2013
</metadata>
<g transform="translate(0.000000,700.000000) scale(0.100000,-0.100000)"
fill="#000000" stroke="none">
<path d="M2830 6878 c-1 -29 -1 -660 -1 -1401 -1 -1136 -3 -1348 -14 -1343 -8
3 -90 49 -182 102 -92 53 -186 107 -208 119 -22 13 -112 65 -200 115 -88 51
-185 106 -215 122 -30 17 -59 34 -65 38 -5 4 -30 19 -55 32 -25 14 -89 51
-142 82 -54 31 -99 56 -101 56 -2 0 -15 -10 -29 -22 -23 -21 -407 -335 -553
-453 -161 -129 -260 -210 -265 -215 -3 -3 -79 -66 -170 -140 -91 -74 -174
-142 -185 -152 -21 -17 -148 -121 -292 -237 l-82 -66 1379 -3 1378 -2 1 -1693
c0 -930 0 -1705 0 -1720 1 -25 5 -20 35 35 18 35 52 94 75 131 22 37 41 69 41
71 0 2 97 174 215 381 118 208 215 379 215 381 0 2 16 28 35 58 19 30 35 57
35 59 0 4 133 240 317 562 44 77 95 167 113 200 18 33 41 74 50 90 10 17 40
68 66 115 27 47 54 94 61 105 7 11 16 27 20 35 4 8 40 74 81 145 41 72 86 150
100 175 14 25 51 90 82 145 31 55 68 120 82 145 14 25 50 88 80 140 30 52 67
118 82 145 16 28 60 105 98 172 l70 123 1073 2 1072 3 -270 225 c-149 124
-275 230 -281 235 -6 6 -49 42 -96 80 -47 39 -96 80 -110 92 -20 17 -313 261
-579 482 -95 78 -317 264 -341 285 -14 11 -90 75 -170 141 -80 66 -147 122
-150 125 -3 3 -61 52 -130 109 -69 57 -145 120 -170 141 -56 47 -241 201 -260
217 -8 6 -35 29 -60 50 -25 22 -137 115 -250 208 -113 93 -207 172 -210 175
-3 4 -57 49 -120 100 -63 52 -117 97 -120 100 -3 3 -57 48 -120 100 -63 52
-117 97 -120 100 -3 3 -84 71 -180 150 -96 79 -177 147 -180 150 -3 3 -44 38
-92 78 l-88 73 0 -53z"/>
</g>
</svg>
